<?xml version="1.0" encoding="UTF-8" standalone="no"?>
<!-- Created with Inkscape (http://www.inkscape.org/) -->

<svg
   xmlns:dc="http://purl.org/dc/elements/1.1/"
   xmlns:cc="http://creativecommons.org/ns#"
   xmlns:rdf="http://www.w3.org/1999/02/22-rdf-syntax-ns#"
   xmlns:svg="http://www.w3.org/2000/svg"
   xmlns="http://www.w3.org/2000/svg"
   xmlns:sodipodi="http://sodipodi.sourceforge.net/DTD/sodipodi-0.dtd"
   xmlns:inkscape="http://www.inkscape.org/namespaces/inkscape"
   width="300"
   height="500"
   id="svg3804"
   version="1.1"
   inkscape:version="0.48.4 r9939"
   sodipodi:docname="New document 3">
  <defs
     id="defs3806" />
  <sodipodi:namedview
     id="base"
     pagecolor="#ffffff"
     bordercolor="#666666"
     borderopacity="1.0"
     inkscape:pageopacity="0.0"
     inkscape:pageshadow="2"
     inkscape:zoom="0.96102398"
     inkscape:cx="375"
     inkscape:cy="215.30285"
     inkscape:document-units="px"
     inkscape:current-layer="layer1"
     showgrid="false"
     inkscape:window-width="992"
     inkscape:window-height="829"
     inkscape:window-x="620"
     inkscape:window-y="120"
     inkscape:window-maximized="0" />
  <metadata
     id="metadata3809">
    <rdf:RDF>
      <cc:Work
         rdf:about="">
        <dc:format>image/svg+xml</dc:format>
        <dc:type
           rdf:resource="http://purl.org/dc/dcmitype/StillImage" />
        <dc:title></dc:title>
      </cc:Work>
    </rdf:RDF>
  </metadata>
  <g
     inkscape:label="Layer 1"
     inkscape:groupmode="layer"
     id="layer1"
     transform="translate(0,-552.36218)">
    <path
       style="fill:#ffec1c;fill-opacity:1;stroke:none"
       d="m 293.17351,849.49116 c -10.54366,17.81871 -35.32552,23.74413 -49.21095,26.52484 -15.43471,-2.36261 -30.72372,-9.08245 -39.08942,-25.58305 -1.07289,-51.29239 -30.17296,-86.55426 -53.93429,-142.26063 -20.19504,-18.69667 -30.46464,-48.07648 -25.62412,-51.06974 0.32803,-11.68125 7.79502,-26.3318 27.47721,-32.33755 19.68219,-6.00574 43.8016,7.9034 43.8016,7.9034 0,0 10.89398,16.46958 17.32819,57.20986 14.25006,53.31936 66.47402,117.61436 75.77832,118.88985 7.78482,15.98432 10.05125,31.92002 3.47346,40.72302 z"
       id="path3765"
       inkscape:connector-curvature="0"
       sodipodi:nodetypes="cccccccccc" />
    <path
       sodipodi:type="arc"
       style="fill:#000000;fill-opacity:1;stroke:none"
       id="path3773"
       sodipodi:cx="116.87377"
       sodipodi:cy="310.87164"
       sodipodi:rx="10.835979"
       sodipodi:ry="11.609978"
       d="m 127.70975,310.87164 a 10.835979,11.609978 0 1 1 -21.67196,0 10.835979,11.609978 0 1 1 21.67196,0 z"
       transform="matrix(-0.44312457,-0.06819907,-0.06819907,0.44312457,355.69618,707.92584)" />
    <path
       sodipodi:type="arc"
       style="fill:#000000;fill-opacity:1;stroke:none"
       id="path3773-2"
       sodipodi:cx="116.87377"
       sodipodi:cy="310.87164"
       sodipodi:rx="10.835979"
       sodipodi:ry="11.609978"
       d="m 127.70975,310.87164 a 10.835979,11.609978 0 1 1 -21.67196,0 10.835979,11.609978 0 1 1 21.67196,0 z"
       transform="matrix(-0.44312457,-0.06819907,-0.06819907,0.44312457,307.1272,728.06531)" />
    <path
       sodipodi:type="arc"
       style="fill:#ffffff;fill-opacity:1;stroke:none"
       id="path3793"
       sodipodi:cx="366.48828"
       sodipodi:cy="235.79378"
       sodipodi:rx="11.222978"
       sodipodi:ry="18.575964"
       d="m 377.71126,235.79378 a 11.222978,18.575964 0 1 1 -22.44596,0 11.222978,18.575964 0 1 1 22.44596,0 z"
       transform="matrix(-0.5834322,0.19497129,0.19632526,0.58748382,352.98351,456.66768)" />
    <path
       sodipodi:type="arc"
       style="fill:#000000;fill-opacity:1;stroke:none"
       id="path3773-8"
       sodipodi:cx="116.87377"
       sodipodi:cy="310.87164"
       sodipodi:rx="10.835979"
       sodipodi:ry="11.609978"
       d="m 127.70975,310.87164 a 10.835979,11.609978 0 1 1 -21.67196,0 10.835979,11.609978 0 1 1 21.67196,0 z"
       transform="matrix(-0.33570507,0.11218586,0.11218586,0.33570507,189.28172,553.06526)" />
    <path
       sodipodi:type="arc"
       style="fill:#ffffff;fill-opacity:1;stroke:none"
       id="path3793-3"
       sodipodi:cx="366.48828"
       sodipodi:cy="235.79378"
       sodipodi:rx="11.222978"
       sodipodi:ry="18.575964"
       d="m 377.71126,235.79378 a 11.222978,18.575964 0 1 1 -22.44596,0 11.222978,18.575964 0 1 1 22.44596,0 z"
       transform="matrix(-0.5834322,0.19497129,0.19632526,0.58748382,329.55505,465.60284)" />
    <path
       sodipodi:type="arc"
       style="fill:#000000;fill-opacity:1;stroke:none"
       id="path3773-8-9"
       sodipodi:cx="116.87377"
       sodipodi:cy="310.87164"
       sodipodi:rx="10.835979"
       sodipodi:ry="11.609978"
       d="m 127.70975,310.87164 a 10.835979,11.609978 0 1 1 -21.67196,0 10.835979,11.609978 0 1 1 21.67196,0 z"
       transform="matrix(-0.33570507,0.11218586,0.11218586,0.33570507,167.89884,562.00042)" />
    <path
       sodipodi:type="arc"
       style="fill:#ffec1c;fill-opacity:1;stroke:none"
       id="path3845"
       sodipodi:cx="241.48753"
       sodipodi:cy="99.570045"
       sodipodi:rx="13.157974"
       sodipodi:ry="29.411943"
       d="m 254.64551,99.570045 a 13.157974,29.411943 0 1 1 -26.31595,0 13.157974,29.411943 0 1 1 26.31595,0 z"
       transform="matrix(-0.57358949,-0.51191374,-0.50598355,0.60319923,392.62782,682.07681)" />
    <path
       sodipodi:type="arc"
       style="fill:#ff8c1c;fill-opacity:1;stroke:none"
       id="path3847"
       sodipodi:cx="286.37946"
       sodipodi:cy="109.24503"
       sodipodi:rx="9.287982"
       sodipodi:ry="23.606955"
       d="m 295.66744,109.24503 a 9.287982,23.606955 0 1 1 -18.57597,0 9.287982,23.606955 0 1 1 18.57597,0 z"
       transform="matrix(-0.47799128,-0.42659479,-0.4728043,0.56364517,391.23929,679.41324)" />
    <path
       sodipodi:type="arc"
       style="fill:#ffec1c;fill-opacity:1;stroke:none"
       id="path3845-7"
       sodipodi:cx="241.48753"
       sodipodi:cy="99.570045"
       sodipodi:rx="13.157974"
       sodipodi:ry="29.411943"
       d="m 254.64551,99.570045 a 13.157974,29.411943 0 1 1 -26.31595,0 13.157974,29.411943 0 1 1 26.31595,0 z"
       transform="matrix(-0.31723127,0.70030343,0.72679048,0.30272809,112.59854,447.89734)" />
    <path
       sodipodi:type="arc"
       style="fill:#ff8c1c;fill-opacity:1;stroke:none"
       id="path3847-8"
       sodipodi:cx="286.37946"
       sodipodi:cy="109.24503"
       sodipodi:rx="9.287982"
       sodipodi:ry="23.606955"
       d="m 295.66744,109.24503 a 9.287982,23.606955 0 1 1 -18.57597,0 9.287982,23.606955 0 1 1 18.57597,0 z"
       transform="matrix(-0.2643594,0.58358624,0.67913209,0.28287709,110.47126,450.01804)" />
    <rect
       style="fill:#ffec1c;fill-opacity:1;stroke:none"
       id="rect3878"
       width="5.1458335"
       height="30.283123"
       x="-151.22885"
       y="667.34192"
       transform="matrix(-0.88818083,0.45949409,0.04500598,0.99898672,0,0)"
       inkscape:transform-center-x="2.2176455"
       inkscape:transform-center-y="0.86645954" />
    <path
       sodipodi:type="arc"
       style="fill:#ffec1c;fill-opacity:1;stroke:none"
       id="path3880"
       sodipodi:cx="356.81329"
       sodipodi:cy="113.11502"
       sodipodi:rx="13.157974"
       sodipodi:ry="16.640968"
       d="m 369.97127,113.11502 a 13.157974,16.640968 0 1 1 -26.31595,0 13.157974,16.640968 0 1 1 26.31595,0 z"
       transform="matrix(-0.65839059,0.05536574,0.05536574,0.65839059,391.4625,502.81965)" />
    <rect
       style="fill:#ffec1c;fill-opacity:1;stroke:none"
       id="rect3878-9"
       width="5.1458335"
       height="30.283123"
       x="166.69341"
       y="529.43164"
       transform="matrix(-0.62646023,0.77945339,0.44519182,0.89543522,0,0)"
       inkscape:transform-center-x="2.3786806"
       inkscape:transform-center-y="-0.10448253" />
    <path
       sodipodi:type="arc"
       style="fill:#ffec1c;fill-opacity:1;stroke:none"
       id="path3880-6"
       sodipodi:cx="356.81329"
       sodipodi:cy="113.11502"
       sodipodi:rx="13.157974"
       sodipodi:ry="16.640968"
       d="m 369.97127,113.11502 a 13.157974,16.640968 0 1 1 -26.31595,0 13.157974,16.640968 0 1 1 26.31595,0 z"
       transform="matrix(-0.57974829,0.31691552,0.31691552,0.57974829,300.8162,425.85335)" />
    <path
       style="fill:#ffec1c;fill-opacity:1;stroke:none"
       d="M 157.96271,718.23802 61.650886,1052.0907 -3.1465955,1051.0252 143.64375,699.82791 z"
       id="path3903"
       inkscape:connector-curvature="0"
       sodipodi:nodetypes="ccccc" />
    <path
       sodipodi:type="arc"
       style="fill:#ff8c1c;fill-opacity:1;stroke:none"
       id="path3911"
       sodipodi:cx="497.89526"
       sodipodi:cy="354.72131"
       sodipodi:rx="33.193016"
       sodipodi:ry="41.417835"
       d="m 531.08828,354.72131 a 33.193016,41.417835 0 1 1 -66.38603,0 l 33.19301,0 z"
       sodipodi:start="0"
       sodipodi:end="3.1415927"
       transform="matrix(-0.39195034,0.93885235,0.47133951,0.19677396,144.52941,227.93586)" />
    <path
       sodipodi:type="arc"
       style="fill:#ff8c1c;fill-opacity:1;stroke:none"
       id="path3913"
       sodipodi:cx="389.43994"
       sodipodi:cy="523.33221"
       sodipodi:rx="22.26923"
       sodipodi:ry="30.054407"
       d="m 411.70917,523.33221 a 22.26923,30.054407 0 1 1 -44.53846,0 l 22.26923,0 z"
       sodipodi:start="0"
       sodipodi:end="3.1415927"
       transform="matrix(0.22056586,-0.7470086,-0.80926449,-0.23894787,461.13492,1254.6059)" />
    <path
       sodipodi:type="arc"
       style="fill:#ff8c1c;fill-opacity:1;stroke:none"
       id="path3915"
       sodipodi:cx="582.43994"
       sodipodi:cy="484.58734"
       sodipodi:rx="46.530018"
       sodipodi:ry="47.07317"
       d="m 628.96996,484.58734 a 46.530018,47.07317 0 1 1 -93.06004,0 l 46.53002,0 z"
       sodipodi:start="0"
       sodipodi:end="3.1415927"
       transform="matrix(-0.24691906,0.61284135,0.61284135,0.24691906,-89.499442,414.90067)" />
    <path
       sodipodi:type="arc"
       style="fill:#ff8c1c;fill-opacity:1;stroke:none"
       id="path3917"
       sodipodi:cx="391.43149"
       sodipodi:cy="693.15771"
       sodipodi:rx="53.228889"
       sodipodi:ry="54.315193"
       d="m 444.66038,693.15771 a 53.228889,54.315193 0 1 1 -106.45778,0 l 53.22889,0 z"
       sodipodi:start="0"
       sodipodi:end="3.1415927"
       transform="matrix(0.18279996,-0.63492339,-0.63492339,-0.18279996,452.18664,1353.4397)" />
  </g>
</svg>
